<?xml version="1.0" encoding="utf-8"?>
<!-- Generator: Adobe Illustrator 17.0.0, SVG Export Plug-In . SVG Version: 6.00 Build 0)  -->
<!DOCTYPE svg PUBLIC "-//W3C//DTD SVG 1.1//EN" "http://www.w3.org/Graphics/SVG/1.1/DTD/svg11.dtd">
<svg version="1.1" id="Layer_1" xmlns="http://www.w3.org/2000/svg" xmlns:xlink="http://www.w3.org/1999/xlink" x="0px" y="0px"
	 width="259.901px" height="44.851px" viewBox="0 0 259.901 44.851" enable-background="new 0 0 259.901 44.851"
	 xml:space="preserve">
<g>
	<polygon fill="#6D6E70" points="20.967,0.746 23.577,0.746 23.577,26.838 20.967,26.838 20.967,5.142 12.58,16.514 4.268,5.18 
		4.268,26.838 1.659,26.838 1.659,0.746 4.268,0.746 12.58,12.115 	"/>
	<polygon fill="#6D6E70" points="26.522,0.746 43.892,0.746 43.892,3.353 29.131,3.353 29.131,14.091 41.281,14.091 41.281,16.698 
		29.131,16.698 29.131,24.228 43.892,24.228 43.892,26.838 26.522,26.838 	"/>
	<g>
		<path fill="#6D6E70" d="M45.868,0.747h8.76c1.788,0,3.478,0.341,5.069,1.023c1.59,0.685,2.97,1.611,4.138,2.777
			c1.168,1.169,2.094,2.547,2.777,4.139c0.684,1.589,1.026,3.281,1.026,5.07s-0.342,3.478-1.026,5.067
			c-0.684,1.592-1.609,2.983-2.777,4.177c-1.168,1.191-2.547,2.13-4.138,2.812c-1.59,0.685-3.281,1.026-5.069,1.026h-8.76V0.747z
			 M54.628,24.23c1.441,0,2.788-0.273,4.044-0.82c1.255-0.547,2.354-1.297,3.3-2.255c0.943-0.955,1.689-2.068,2.235-3.335
			c0.547-1.267,0.822-2.623,0.822-4.063c0-1.44-0.275-2.791-0.822-4.044c-0.545-1.256-1.291-2.355-2.235-3.3
			c-0.946-0.945-2.045-1.689-3.3-2.236c-1.256-0.547-2.603-0.823-4.044-0.823h-6.15V24.23H54.628z"/>
		<rect x="70.059" y="0.747" fill="#6D6E70" width="2.611" height="26.092"/>
		<path fill="#6D6E70" d="M93.489,24.203c-0.019,0.008-0.038,0.019-0.058,0.027c-1.367,0.598-2.821,0.896-4.361,0.896
			c-1.542,0-3.001-0.298-4.38-0.896c-1.379-0.598-2.584-1.413-3.616-2.447c-1.031-1.034-1.845-2.241-2.44-3.619
			c-0.598-1.383-0.895-2.845-0.895-4.388s0.296-2.999,0.895-4.369c0.596-1.37,1.409-2.572,2.44-3.603
			c1.033-1.034,2.237-1.849,3.616-2.447c1.379-0.596,2.838-0.896,4.38-0.896c1.349,0,2.628,0.246,3.844,0.707
			c0.405-0.836,0.916-1.586,1.532-2.228c-1.681-0.723-3.474-1.085-5.376-1.085c-1.914,0-3.715,0.365-5.404,1.099
			c-1.69,0.731-3.169,1.732-4.437,2.999C77.962,5.219,76.96,6.7,76.228,8.389c-0.734,1.689-1.099,3.492-1.099,5.403
			c0,1.916,0.365,3.717,1.099,5.409c0.732,1.689,1.734,3.167,3.001,4.434c1.268,1.267,2.746,2.268,4.437,2.999
			c1.689,0.734,3.49,1.099,5.404,1.099s3.715-0.365,5.404-1.099c0.403-0.173,0.794-0.365,1.172-0.571
			C94.942,25.48,94.215,24.858,93.489,24.203"/>
		<polygon fill="#44B5E2" points="147.653,0.82 165.693,0.82 165.693,5.295 152.125,5.295 152.125,13.123 163.309,13.123 
			163.309,17.557 152.125,17.557 152.125,22.441 165.693,22.441 165.693,26.915 147.653,26.915 		"/>
		<polygon fill="#44B5E2" points="186.978,0.82 190.93,0.82 190.93,26.915 186.456,26.915 186.456,9.022 179.784,18.118 
			173.15,9.133 173.15,26.915 168.675,26.915 168.675,0.82 172.627,0.82 179.784,10.587 		"/>
		<polygon fill="#44B5E2" points="212.774,26.915 207.48,26.915 198.608,16.252 198.049,16.962 198.049,26.915 193.614,26.915 
			193.614,0.82 198.049,0.82 198.049,10.251 206.25,0.82 211.469,0.82 201.405,12.936 		"/>
		<path fill="#44B5E2" d="M235.362,26.915h-4.66l-3.056-9.358h-5.368l-2.98,9.358h-4.66l8.349-26.095h4.025L235.362,26.915z
			 M223.62,13.868h2.795l-1.416-4.994L223.62,13.868z"/>
		<path fill="#44B5E2" d="M144.355,16.104c-0.535-0.969-1.225-1.776-2.069-2.423c-0.845-0.644-1.795-1.175-2.852-1.583
			c-1.056-0.411-2.105-0.788-3.151-1.137c-0.62-0.2-1.211-0.398-1.769-0.598c-0.559-0.198-1.064-0.409-1.509-0.633
			c-0.448-0.222-0.822-0.471-1.119-0.744c-0.298-0.273-0.483-0.596-0.558-0.969c-0.101-0.471-0.07-0.939,0.092-1.399
			c0.162-0.458,0.441-0.869,0.839-1.229c0.398-0.36,0.895-0.644,1.492-0.858c0.596-0.208,1.266-0.303,2.011-0.279
			c1.293,0.051,2.281,0.387,2.966,1.007c0.684,0.623,1.149,1.492,1.397,2.609h4.548c-0.026-0.623-0.204-1.386-0.54-2.293
			c-0.337-0.907-0.858-1.77-1.566-2.59c-0.708-0.82-1.616-1.521-2.722-2.106C138.738,0.292,137.391,0,135.799,0
			c-1.268,0-2.473,0.225-3.617,0.669c-1.142,0.449-2.137,1.056-2.982,1.824c-0.844,0.769-1.49,1.665-1.938,2.68
			c-0.448,1.018-0.608,2.087-0.485,3.202c0.225,1.289,0.758,2.382,1.604,3.275c0.845,0.893,1.907,1.6,3.186,2.12
			c1.28,0.522,2.367,0.931,3.262,1.229c0.746,0.273,1.473,0.547,2.18,0.82c0.709,0.273,1.336,0.582,1.883,0.928
			c0.546,0.349,0.988,0.763,1.324,1.248c0.336,0.485,0.502,1.061,0.502,1.73c0,1.191-0.454,2.103-1.359,2.737
			c-0.908,0.631-2.107,0.947-3.599,0.947c-0.82,0-1.551-0.154-2.199-0.466c-0.646-0.311-1.192-0.725-1.639-1.248
			c-0.448-0.522-0.789-1.137-1.026-1.846c-0.12-0.363-0.208-0.731-0.265-1.11h-4.544c0.069,1.169,0.31,2.231,0.727,3.181
			c0.547,1.245,1.282,2.298,2.201,3.162c0.918,0.866,1.969,1.524,3.149,1.973c1.179,0.452,2.392,0.68,3.634,0.68
			c1.217,0,2.392-0.181,3.523-0.541c1.13-0.36,2.13-0.874,3.001-1.546c0.869-0.674,1.559-1.505,2.069-2.498
			c0.509-0.993,0.763-2.125,0.763-3.392C145.156,18.291,144.888,17.073,144.355,16.104"/>
		<path fill="#5D98C2" d="M118.783,1.486c-3.366-0.33-6.365,1.335-8.531,5.205v0.024l-0.012-0.024
			c-2.164-3.871-5.163-5.536-8.53-5.205c-4.918,0.482-7.439,5.205-6.026,11.044c1.607,6.635,14.555,15.205,14.555,15.205
			l0.012-0.035v0.035c0,0,1.7-1.126,3.941-2.875h-4.383v-8.538h4.686v-4.826h8.696v4.429c0.773-1.153,1.351-2.298,1.616-3.394
			C126.222,6.692,123.701,1.968,118.783,1.486"/>
		<polygon fill="#44B5E2" points="125.451,18.732 120.706,18.732 120.706,13.987 116.983,13.987 116.983,18.732 112.238,18.732 
			112.238,22.451 116.983,22.451 116.983,27.197 120.706,27.197 120.706,22.451 125.451,22.451 		"/>
	</g>
	<g>
		<path fill="#44B5E2" d="M238.241,21.262c0,0.553,0.106,1.071,0.318,1.554c0.213,0.483,0.502,0.909,0.869,1.275
			c0.366,0.367,0.794,0.656,1.283,0.869c0.488,0.213,1.009,0.319,1.562,0.319s1.073-0.109,1.563-0.327
			c0.488-0.218,0.919-0.513,1.291-0.885h2.406c-0.244,0.457-0.545,0.877-0.9,1.259c-0.356,0.382-0.757,0.712-1.203,0.988
			s-0.936,0.492-1.467,0.646s-1.095,0.231-1.689,0.231c-0.818,0-1.586-0.157-2.303-0.47c-0.718-0.313-1.345-0.738-1.881-1.275
			c-0.537-0.537-0.962-1.164-1.275-1.881s-0.47-1.485-0.47-2.303c0-0.807,0.156-1.572,0.47-2.295s0.738-1.352,1.275-1.889
			c0.536-0.537,1.163-0.961,1.881-1.275c0.717-0.313,1.484-0.47,2.303-0.47c0.605,0,1.174,0.085,1.705,0.255
			s1.023,0.401,1.475,0.693c0.451,0.292,0.853,0.629,1.203,1.012c0.351,0.382,0.644,0.786,0.877,1.211h-2.423
			c-0.382-0.382-0.813-0.685-1.291-0.908c-0.478-0.223-0.993-0.335-1.546-0.335s-1.073,0.106-1.562,0.319
			c-0.489,0.213-0.917,0.5-1.283,0.861c-0.367,0.361-0.656,0.786-0.869,1.275C238.348,20.204,238.241,20.72,238.241,21.262z"/>
		<path fill="#44B5E2" d="M248.282,25.82c0-0.297,0.099-0.544,0.297-0.741c0.198-0.196,0.442-0.295,0.731-0.295
			c0.3,0,0.546,0.099,0.738,0.295c0.193,0.197,0.289,0.444,0.289,0.741c0,0.287-0.096,0.529-0.289,0.725
			c-0.192,0.197-0.438,0.295-0.738,0.295c-0.289,0-0.533-0.098-0.731-0.295C248.381,26.349,248.282,26.107,248.282,25.82z"/>
		<path fill="#44B5E2" d="M259.901,26.84h-1.992l-1.308-4h-2.295l-1.274,4h-1.993l3.57-11.157h1.722L259.901,26.84z M254.881,21.262
			h1.195l-0.605-2.136L254.881,21.262z"/>
	</g>
	<g>
		<path fill="#5D98C2" d="M2.961,35.554H0l0.416-2.096h8.333L8.35,35.554H5.355l-1.713,9.114H1.247L2.961,35.554z"/>
		<path fill="#5D98C2" d="M18.212,37.949c0,2.045-0.716,4.025-1.996,5.289c-1.048,1.014-2.462,1.613-4.142,1.613
			c-2.91,0-4.54-2.063-4.54-4.674c0-2.029,0.748-4.042,2.062-5.306c1.048-0.998,2.479-1.597,4.092-1.597
			C16.648,33.275,18.212,35.271,18.212,37.949z M11.476,36.12c-0.898,0.881-1.397,2.628-1.397,3.975c0,1.58,0.716,2.761,2.346,2.761
			c0.698,0,1.363-0.316,1.879-0.815c0.882-0.881,1.364-2.728,1.364-4.025c0-1.397-0.499-2.744-2.262-2.744
			C12.656,35.271,11.991,35.587,11.476,36.12z"/>
		<path fill="#5D98C2" d="M20.24,33.624c0.947-0.166,2.012-0.249,3.093-0.249c1.747,0,3.144,0.399,4.092,1.214
			c0.898,0.749,1.464,1.863,1.48,3.509c0,2.162-0.915,4.042-2.313,5.156c-1.297,1.031-2.943,1.48-5.372,1.48
			c-1.347,0-2.511-0.1-3.06-0.199L20.24,33.624z M20.905,42.739c0.282,0.05,0.632,0.066,1.048,0.066
			c1.297,0,2.444-0.466,3.177-1.314c0.765-0.865,1.164-2.029,1.164-3.376c0-1.763-0.981-2.811-2.961-2.811
			c-0.415,0-0.765,0.017-1.015,0.066L20.905,42.739z"/>
		<path fill="#5D98C2" d="M39.949,37.949c0,2.045-0.716,4.025-1.996,5.289c-1.048,1.014-2.462,1.613-4.142,1.613
			c-2.91,0-4.541-2.063-4.541-4.674c0-2.029,0.749-4.042,2.063-5.306c1.048-0.998,2.479-1.597,4.092-1.597
			C38.386,33.275,39.949,35.271,39.949,37.949z M33.213,36.12c-0.898,0.881-1.397,2.628-1.397,3.975c0,1.58,0.716,2.761,2.346,2.761
			c0.698,0,1.363-0.316,1.879-0.815c0.882-0.881,1.364-2.728,1.364-4.025c0-1.397-0.499-2.744-2.262-2.744
			C34.394,35.271,33.729,35.587,33.213,36.12z"/>
		<path fill="#5D98C2" d="M44.354,33.675c0.715-0.183,1.846-0.299,2.927-0.299c0.998,0,2.162,0.166,2.978,0.748
			c0.748,0.516,1.214,1.297,1.214,2.378c0,1.414-0.648,2.479-1.53,3.16c-0.915,0.715-2.212,1.031-3.576,1.031
			c-0.398,0-0.731-0.033-0.981-0.066l-0.765,4.042h-2.345L44.354,33.675z M45.751,38.681c0.25,0.05,0.516,0.083,0.915,0.083
			c1.447,0,2.395-0.932,2.395-2.046c0-1.081-0.781-1.43-1.713-1.43c-0.449,0-0.765,0.033-0.965,0.083L45.751,38.681z"/>
		<path fill="#5D98C2" d="M62.084,37.949c0,2.045-0.716,4.025-1.996,5.289c-1.048,1.014-2.462,1.613-4.142,1.613
			c-2.91,0-4.541-2.063-4.541-4.674c0-2.029,0.749-4.042,2.063-5.306c1.048-0.998,2.479-1.597,4.092-1.597
			C60.521,33.275,62.084,35.271,62.084,37.949z M55.348,36.12c-0.898,0.881-1.397,2.628-1.397,3.975c0,1.58,0.716,2.761,2.346,2.761
			c0.698,0,1.363-0.316,1.879-0.815c0.882-0.881,1.364-2.728,1.364-4.025c0-1.397-0.499-2.744-2.262-2.744
			C56.528,35.271,55.863,35.587,55.348,36.12z"/>
		<path fill="#5D98C2" d="M64.112,33.675c0.748-0.183,1.879-0.299,2.993-0.299c1.064,0,2.162,0.166,2.944,0.648
			c0.731,0.433,1.247,1.147,1.247,2.195c0,1.663-1.114,2.694-2.545,3.16v0.066c0.666,0.283,0.948,1.031,1.064,2.046
			c0.134,1.248,0.233,2.711,0.433,3.177h-2.462c-0.1-0.299-0.216-1.264-0.332-2.645c-0.1-1.364-0.565-1.78-1.514-1.78H65.21
			l-0.832,4.424H62L64.112,33.675z M65.559,38.448h0.998c1.298,0,2.245-0.782,2.245-1.879c0-0.898-0.765-1.297-1.713-1.297
			c-0.449,0-0.731,0.033-0.932,0.083L65.559,38.448z"/>
		<path fill="#5D98C2" d="M77.218,35.554h-2.961l0.416-2.096h8.333l-0.399,2.096h-2.994l-1.713,9.114h-2.396L77.218,35.554z"/>
		<path fill="#5D98C2" d="M86.049,33.458l-1.23,6.453c-0.083,0.383-0.117,0.832-0.117,1.331c0,0.898,0.55,1.597,1.631,1.597
			c1.247,0,2.078-0.832,2.478-2.911l1.23-6.47h2.396l-1.214,6.37c-0.648,3.393-2.146,5.023-5.189,5.023
			c-2.312,0-3.726-1.181-3.726-3.576c0-0.482,0.066-1.031,0.166-1.563l1.181-6.253H86.049z"/>
		<path fill="#5D98C2" d="M94.712,42.074c0.666,0.399,1.614,0.715,2.645,0.715c0.932,0,1.78-0.433,1.78-1.314
			c0-0.632-0.482-1.048-1.514-1.58c-1.197-0.648-2.328-1.514-2.328-2.977c0-2.262,1.979-3.643,4.424-3.643
			c1.363,0,2.162,0.299,2.645,0.565l-0.749,1.996c-0.365-0.2-1.164-0.516-2.095-0.499c-1.115,0-1.697,0.565-1.697,1.181
			c0,0.649,0.683,1.048,1.63,1.58c1.364,0.715,2.229,1.63,2.229,2.96c0,2.495-2.063,3.776-4.558,3.776
			c-1.563,0-2.678-0.399-3.21-0.798L94.712,42.074z"/>
		<path fill="#5D98C2" d="M105.04,41.758l-1.33,2.911h-2.545l5.455-11.21h3.077l1.314,11.21H108.5l-0.233-2.911H105.04z
			 M108.167,39.928l-0.216-2.412c-0.05-0.615-0.116-1.514-0.166-2.195h-0.034c-0.282,0.682-0.599,1.547-0.897,2.195l-1.114,2.412
			H108.167z"/>
		<path fill="#5D98C2" d="M113.706,33.458h2.395l-1.729,9.114h4.308l-0.399,2.096h-6.702L113.706,33.458z"/>
		<path fill="#5D98C2" d="M122.853,33.458l-1.23,6.453c-0.083,0.383-0.117,0.832-0.117,1.331c0,0.898,0.549,1.597,1.631,1.597
			c1.247,0,2.078-0.832,2.478-2.911l1.231-6.47h2.395l-1.214,6.37c-0.649,3.393-2.146,5.023-5.189,5.023
			c-2.312,0-3.726-1.181-3.726-3.576c0-0.482,0.066-1.031,0.166-1.563l1.182-6.253H122.853z"/>
		<path fill="#5D98C2" d="M130.736,33.624c0.947-0.166,2.012-0.249,3.093-0.249c1.747,0,3.144,0.399,4.092,1.214
			c0.898,0.749,1.464,1.863,1.48,3.509c0,2.162-0.915,4.042-2.313,5.156c-1.297,1.031-2.943,1.48-5.372,1.48
			c-1.347,0-2.511-0.1-3.06-0.199L130.736,33.624z M131.401,42.739c0.282,0.05,0.632,0.066,1.048,0.066
			c1.297,0,2.444-0.466,3.177-1.314c0.765-0.865,1.164-2.029,1.164-3.376c0-1.763-0.981-2.811-2.961-2.811
			c-0.415,0-0.765,0.017-1.015,0.066L131.401,42.739z"/>
		<path fill="#5D98C2" d="M139.934,43.454c0-0.915,0.648-1.696,1.613-1.696c0.814,0,1.38,0.582,1.38,1.414
			c0,0.981-0.698,1.664-1.646,1.664C140.466,44.835,139.934,44.252,139.934,43.454z"/>
		<path fill="#5D98C2" d="M144.258,43.454c0-0.915,0.648-1.696,1.613-1.696c0.814,0,1.38,0.582,1.38,1.414
			c0,0.981-0.698,1.664-1.646,1.664C144.79,44.835,144.258,44.252,144.258,43.454z"/>
		<path fill="#5D98C2" d="M148.582,43.454c0-0.915,0.648-1.696,1.613-1.696c0.814,0,1.38,0.582,1.38,1.414
			c0,0.981-0.698,1.664-1.646,1.664C149.114,44.835,148.582,44.252,148.582,43.454z"/>
	</g>
</g>
</svg>
