<?xml version="1.0" encoding="utf-8"?>
<!-- Generator: Adobe Illustrator 17.0.0, SVG Export Plug-In . SVG Version: 6.00 Build 0)  -->
<!DOCTYPE svg PUBLIC "-//W3C//DTD SVG 1.1//EN" "http://www.w3.org/Graphics/SVG/1.1/DTD/svg11.dtd">
<svg version="1.1" id="Layer_1" xmlns="http://www.w3.org/2000/svg" xmlns:xlink="http://www.w3.org/1999/xlink" x="0px" y="0px"
	 width="455.648px" height="389.381px" viewBox="0 0 455.648 389.381" enable-background="new 0 0 455.648 389.381"
	 xml:space="preserve">
<path fill="#46B5E2" d="M54.682,38.843c0,0-0.116-0.027-0.293-0.059C54.577,38.869,54.682,38.843,54.682,38.843z M454.407,128.246
	c-1.134-1.008-3.276-3.779-4.283-4.787c-1.007-1.008-4.409-3.024-6.677-3.905c-2.268-0.882-3.779,0.127-5.039-0.251
	c-1.26-0.378-1.89,0-3.024,0.756c-1.134,0.756-0.252,1.764-1.133,2.394c-0.881,0.63-1.386,0.126-2.268-0.252
	c-0.881-0.378-1.89-0.126-2.772,0c-0.882,0.126-1.511,0.252-2.645-0.63c-1.134-0.882-2.015-0.63-2.898-0.882
	c-0.882-0.252-3.024,0.126-4.031,0c-1.007-0.126-2.898,0.504-3.402,0.63c-0.504,0.126,0.126,1.89,0,3.023
	c-0.126,1.134-2.353,0.755-2.353,0.755s0,0-2.686-0.377c-2.686-0.377-1.134-1.638-2.015-2.394c-0.881-0.756-0.882,1.008-2.268,0
	c-1.386-1.008-1.386-1.512-1.386-1.512s0.504-0.63,1.26-1.386c0.756-0.756,0.126-1.386,0-2.772c-0.126-1.386,0.252-1.134,0.63-1.386
	c0.378-0.252,1.134-0.882,1.511-2.393c0.377-1.511,0.757-5.165,0.757-6.299c0-1.134-1.26-0.126-2.52-0.126
	c-1.261,0-1.511-1.008-1.637-2.52c-0.126-1.512,2.015-1.511,2.394-2.645c0.378-1.134,1.764-0.126,2.645-1.134
	c0.881-1.008,1.511-1.764,3.316-2.394c1.805-0.63,0-1.133,0.967-1.637c0.967-0.504,0.504-2.394,0.504-2.772
	c0-0.378-0.378-1.512-1.471-2.016c-1.093-0.505,0-1.008,0-2.141c0-1.133,0-0.882-1.93-1.26c-1.93-0.378-2.519,0-3.779-0.126
	c-1.26-0.126-4.031-0.882-5.039-1.512c-1.008-0.63-2.897-3.023-3.653-4.157c-0.756-1.134-1.386-2.016-2.016-3.402
	c-0.63-1.386-2.394-1.89-3.275-2.772c-0.881-0.882-0.756,0.882-0.252,1.638c0.504,0.756,3.275,3.401,3.905,4.661
	c0.63,1.26-0.252,1.512-1.26,1.26c-1.007-0.252-1.512-1.638-3.275-2.646c-1.763-1.008-3.024-0.756-3.78-1.763
	c-0.757-1.008-1.26,1.512-0.756,3.149c0.504,1.638-1.764,0.252-2.645-1.008c-0.881-1.26-1.134-1.134-2.268-1.89
	c-1.134-0.756-0.881-1.89-3.024-3.402c-2.142-1.512-4.409-2.645-5.795-3.149c-1.386-0.504-1.764,0.63-2.772,0.756
	c-1.008,0.126-1.89,3.779-2.015,4.535c-0.126,0.756-0.756,0.378-1.638,0.252c-0.882-0.126-2.141-1.764-3.275-4.031
	c-1.134-2.267,0-1.386-0.756-4.913c-0.756-3.528-1.512-1.89-2.772-3.023c-1.26-1.134-1.26-0.504-2.519-0.504
	c-1.26,0-1.386-0.504-1.764-1.386c-0.378-0.882,0.126-1.26,0.378-3.149c0.253-1.89-0.504-0.504-1.89-2.394
	c-1.386-1.89-1.008-0.378-1.89-0.126c-0.882,0.252-0.504,1.89-2.142,2.015c-1.638,0.126-0.252-1.89-0.504-3.653
	c-0.253-1.764-2.519-0.504-3.275-1.638c-0.756-1.134,0.63-0.882,1.638-1.008c1.008-0.126,3.401-0.63,4.283-1.512
	c0.882-0.882,1.26-0.126,2.645,0c1.385,0.126,7.433,1.26,8.566,1.134s2.519-0.378,3.653-1.134c1.134-0.756,1.511-1.89,2.015-2.016
	c0.504-0.126,2.898,0,5.291,0.126c2.394,0.126,3.275,0.126,3.905,0c0.63-0.126,2.142-1.512,2.268-2.394
	c0.126-0.882-1.764-0.252-2.645,0.126c-0.881,0.378-2.52,0.504-3.653,0.504c-1.133,0-4.662,0.63-6.803,0.252
	c-2.141-0.378-2.016-0.63-5.166-0.63s-5.417-0.756-7.307-1.008c-1.89-0.252-2.394,0.756-3.401,1.638
	c-1.007,0.882-3.149,0.756-5.291,0.252c-2.142-0.504-6.173-0.504-6.803-0.504c-0.63,0-2.52,1.512-3.779,2.267
	c-1.26,0.756-3.905-0.63-5.291-0.63c-1.386,0-3.149,1.134-4.661,1.638c-1.511,0.504-2.898,0.126-4.662-0.504
	c-1.764-0.63-2.268,0.126-2.268,0.126s-2.645,0.252-4.157,0c-1.511-0.252-1.89-0.504-3.024-0.881
	c-1.134-0.378-4.536,0.756-5.669,0.63c-1.133-0.126-2.646,0.126-4.032,0.126c-1.386,0-0.126,1.385,0.126,2.142
	c0.252,0.756,1.26,0.756,2.015,0.63c0.756-0.126,1.386-0.504,1.89-1.008c0.504-0.504,2.393-0.378,4.535-0.63
	c2.142-0.252,2.771,0.504,3.275,0.504c0.504,0,4.032,0.756,4.787,1.26c0.756,0.504,2.142,0.882,4.158,0.882
	c2.015,0,0.504,0.882,0,1.638c-0.504,0.756-0.63,0.378-2.268,0.252c-1.638-0.126-0.756,1.008-1.26,1.764
	c-0.504,0.756-4.787,0.378-7.181,0c-2.394-0.378-2.771-0.378-3.905-1.386c-1.134-1.008-2.268-0.757-3.15,0.629
	c-0.882,1.386-1.763,1.386-2.645,1.638c-0.882,0.252-2.394,1.008-3.024,1.512c-0.63,0.504-0.377,1.008-0.756,1.386
	c-0.378,0.378-1.26,0.756-1.511,1.134c-0.252,0.378-0.756,1.134-1.638,1.26c-0.881,0.126-2.142,0-3.779,0.126
	c-1.637,0.126-3.024,0.882-3.779,1.638s-0.504,2.142-1.26,3.024c-0.756,0.882-0.882,1.512-2.52,1.512c-1.638,0-1.89-0.63-5.039-1.26
	c-3.149-0.63-2.519,0.756-3.023,1.008c-0.504,0.252-2.645-0.378-5.039-1.008c-2.394-0.63-4.661-0.756-6.173-1.008
	c-1.512-0.252-3.149-1.134-5.165-1.26c-2.015-0.126-4.283-1.008-6.677-1.764c-2.394-0.756-3.653-1.89-5.921-3.276
	c-2.268-1.386-6.677-5.417-7.307-6.425c-0.63-1.008,0.378-1.008,0.882-1.512c0.503-0.504-0.629-1.26-1.134-1.386
	c-0.504-0.126-1.638-0.126-2.015-1.008c-0.378-0.881-2.142-0.756-2.898-0.756c-0.756,0-1.008,1.512-1.008,1.512s-1.26,0-1.764-0.504
	c-0.504-0.504-1.89-0.756-4.283-1.008c-2.394-0.252-5.669,0-8.567-0.126c-2.898-0.126-4.913,1.385-6.299,1.385
	c-1.385,0-3.276,0-4.157,0.63c-0.882,0.63-1.763,1.134-3.653,1.008c-1.89-0.126-5.04,0.756-6.299,1.26
	c-1.26,0.504-2.015,0.126-3.149,0.126c-1.134,0-2.897,0.126-3.779,0.63c-0.882,0.504-1.134,0.126-3.653,0
	c-2.52-0.126-3.653,0.504-4.535,0.63c-0.882,0.126-2.142,0.63-3.905,0.882c-1.764,0.252-4.913,0-6.803-0.504
	c-1.89-0.504-2.52-2.142-3.023-2.897s-0.756-1.512-1.26-2.268c-0.504-0.756-0.881-2.519-1.638-3.653
	c-0.756-1.133-0.252-3.653-0.252-3.653s1.134-0.882,0.882-1.638c-0.252-0.756-1.134-1.008-0.882-1.638
	c0.252-0.63-1.008-2.142-1.638-3.276c-0.63-1.134-3.905-5.543-5.417-6.677c-1.512-1.134-2.897-2.268-3.905-2.142
	c-1.008,0.126-2.898-1.008-3.905-2.016c-1.008-1.008-2.898-1.89-4.031-2.394c-1.134-0.504-3.276,0.126-4.41,0
	c-1.134-0.126-2.142-0.63-2.142-0.63c-4.409-3.149-5.543-2.394-6.425-3.024c-0.881-0.63-1.134,0.378-1.638,1.008
	c-0.504,0.63-0.252,1.134-0.756,1.763c-0.504,0.63-0.504,0-2.519-0.881c-2.015-0.881-2.646-0.378-3.402-0.252
	c-0.756,0.126-0.378,1.008-2.015,1.26c-1.638,0.252-1.638,0.002-2.016-1.006c-0.378-1.008-3.654-7.808-4.284-8.69
	c-0.63-0.882-0.504-1.254-1.26-2.387c-0.756-1.133,0.125-4.146-0.127-5.91c-0.252-1.764-1.011-0.984-1.389-1.362
	c-0.378-0.378-0.383-2.095-2.399-4.489c-2.015-2.394-3.035-1.166-3.035-1.166s-1.989,0.694-2.618,0.946
	c-0.63,0.252-2.394,2.267-3.276,2.897c-0.882,0.63-2.646,2.897-3.023,4.535c-0.378,1.638,0.504,1.89,1.26,3.149
	c0.756,1.26,1.89,2.016,1.89,3.024c0,1.008-0.63,2.645-0.63,3.905c0,1.26,1.89,0,3.276-0.504c1.385-0.504,2.897,0.126,4.157-0.378
	c1.26-0.504,1.511-0.882,2.393-1.512c0.882-0.63,3.528-0.378,4.031,0.63c0.504,1.008,2.016,4.283,2.394,5.165
	c0.378,0.882,0,1.385,0,1.89c0,0.504-0.378,0.882-1.638,2.015c-1.26,1.133-1.764,0.63-3.149,0.504
	c-1.386-0.126-0.378-1.008-1.26-1.386s-1.386-0.252-2.394-1.008c-1.008-0.756-0.756-0.252-1.764,1.134
	c-1.008,1.386-1.26,0.882-2.142,1.008c-0.882,0.126-1.764,0.378-3.024,2.142c-1.26,1.764-1.386,0.756-2.52,1.008
	c-1.134,0.252-3.779,0.378-6.047,1.134c-2.267,0.756-1.89,1.386-3.276,1.763c-1.386,0.378-5.669,0.504-7.81,0.378
	c-2.142-0.126-2.52,1.26-3.528,1.89c-1.008,0.63-4.409,2.267-5.543,2.645c-1.134,0.378-3.275,2.016-4.913,2.646
	c-1.638,0.63-1.638,1.386-2.267,2.394c-0.63,1.008-1.434,1.385-1.434,1.637c0,0.252-1.085,0.378-2.219,0
	c-1.134-0.378-0.882-1.638-2.016-1.512c-1.134,0.126,0.378,2.268,0.504,2.898c0.126,0.63-1.26,0.504-2.646,0.882
	c-1.386,0.378-1.008,2.393-0.756,3.401c0.252,1.008,1.134,1.134,1.638,1.512c0.504,0.378-1.134,1.26-1.764,1.512
	c-0.63,0.252,0.378,1.764,0.504,2.267s1.134,1.386,1.134,1.386s0,1.638,0.126,3.024c0.126,1.386,0.756,1.134,0.882,1.638
	c0.126,0.504,2.016,3.149,2.646,4.283c0.63,1.134,3.023,2.646,3.905,3.276s1.134,2.519,1.764,4.787s0.882,0.504,1.764,1.008
	c0.882,0.504,1.386,2.016,2.015,3.15c0.63,1.134,0.378,3.149,0.378,3.149s0.63,2.142,0.378,3.024
	c-0.252,0.882-0.63,3.024-0.63,3.653s0,6.929-0.378,8.188c-0.378,1.26-1.008,1.386-2.015,1.764
	c-1.008,0.378-1.008,1.386-1.134,2.016c-0.126,0.63-0.252,1.008-1.008,1.763c-0.756,0.756-1.008,0.504-1.512,1.26
	c-0.504,0.756-1.56,0.881-1.56,1.763c0,0.882-3.227,1.134-5.621,1.386c-2.393,0.252-5.417,1.26-7.811,1.008
	c-2.394-0.252-2.519-3.401-2.267-4.535c0.252-1.134-1.008-1.26-1.638-1.638c-0.63-0.378-0.63-1.008-0.126-1.512
	c0.504-0.504,1.512-0.756,1.764-2.267c0.252-1.511-0.126-0.756-0.882-1.008c-0.756-0.252-1.764-1.512-3.905-3.401
	c-2.142-1.89-1.511-0.756-3.149-0.882c-1.638-0.126-0.63-3.024-0.63-4.157c0-1.134-0.126-1.386-1.134-2.016
	c-1.008-0.63-3.149-3.527-3.779-4.913c-0.63-1.386,0.252-2.142,1.26-3.275c1.008-1.134,2.771-3.276,3.528-4.157
	c0.756-0.882,0.252-0.63,0.882-2.772c0.63-2.142,1.638-1.134,2.897-1.134c1.26,0,0.882-1.763,1.512-3.905
	c0.63-2.142,0.882-2.142,1.386-3.024c0.504-0.882,3.402-1.638,4.409-2.394c1.008-0.756,1.26-1.764,1.26-2.897
	c0-1.134,1.26-1.511,1.638-2.393c0.378-0.882,0.882-2.77,0.756-4.03c-0.126-1.26-1.638-1.509-2.646-2.391
	c-1.008-0.882-1.134-2.388-1.386-3.648c-0.252-1.26-2.52-3.391-2.898-4.651c-0.302-1.006,1.401-0.794,2.101-0.668
	c-0.235-0.106-0.603-0.39-1.093-1.159c-0.882-1.385-2.897-1.933-4.535-3.822c-1.638-1.89-1.638-3.991-1.764-7.77
	s0.378-3.901,1.134-5.413c0.756-1.512,3.858-1.178,3.858-1.178s-0.835,0-2.221,0c-1.386,0-3.023,0.106-4.157,0.736
	c-1.134,0.63-2.393,1.327-3.023,2.334c-0.63,1.008-1.134,2.917-2.394,5.563c-1.26,2.646-3.023,6.371-4.913,7.631
	c-1.89,1.26-4.031,0.729-5.291,0.855c-1.26,0.126-1.512,1.372-1.764,2.632c-0.252,1.26-2.646,3.269-4.157,4.907
	c-1.512,1.638-1.008,1.508-1.89,3.65c-0.882,2.142-1.638,3.652-3.149,5.541c-1.512,1.89-2.52,3.653-3.527,5.164
	c-1.008,1.512-0.757,9.7-1.134,10.834c-0.378,1.134-1.89,2.519-1.89,4.913c0,2.394,0.881,3.653,1.133,5.165
	c0.252,1.511-3.905,4.157-4.535,5.039c-0.63,0.882-0.252,3.024-0.504,3.653c-0.252,0.63-3.905,3.779-4.913,4.409
	c-1.008,0.63-0.756,3.528-1.638,4.787c-0.882,1.26-1.89,1.638-2.016,3.024c-0.126,1.386,1.512,0.252,3.276-0.126
	c1.764-0.378,2.772-1.26,3.779-2.645c1.008-1.385,2.267-2.016,5.039-1.638c2.772,0.378,1.008,2.394,1.134,4.661
	c0.126,2.267,0.378,1.512,1.764,1.134c1.386-0.378,0.378-1.008,3.024-0.63c2.646,0.378,2.393,4.661,2.267,6.677
	c-0.126,2.016,1.763,3.527,1.889,4.787c0.126,1.26,0.756,5.291,1.638,6.173c0.882,0.882,5.795,7.307,5.795,7.307
	s0.63,1.512,0.63,2.015s0.252,0.882,0.881,1.638c0.63,0.756,0.504,2.519,0.378,3.779c-0.126,1.26,0.63,2.394,1.134,2.897
	c0.504,0.504,1.386,2.772,1.386,3.15c0,0.378-2.142,1.008-3.024,1.512c-0.882,0.504-1.512,2.015-1.512,2.015s0.756,1.638,0.63,2.519
	c-0.126,0.881-0.63,2.142-0.756,3.023c-0.126,0.882,0.504,1.512,0.63,2.268c0.126,0.756,0.504,1.512,0.378,2.393
	c-0.126,0.881-0.504,1.386-0.378,3.402c0.126,2.016,0.504,2.393,0.756,2.897c0.252,0.504,5.921,0.126,5.921,0.126
	s1.26,1.134,2.015,2.394c0.756,1.26,0.882,1.386,0.756,2.772c-0.126,1.386,0.252,1.386,0.882,3.149
	c0.63,1.763,1.385,2.52,2.267,4.158c0.882,1.638,2.015,1.26,3.653,1.386c1.638,0.126,4.409-0.126,5.039-0.126
	c0.63,0,2.898-0.504,2.898-0.504s0.504-0.756,1.763-1.638c1.26-0.882,1.26,1.134,1.26,1.512c0,0.378,15.495,0.63,16.125,0.881
	c0.63,0.252,0.378,0.756,1.386,2.142c1.008,1.386,2.519-0.504,3.528-2.142c1.008-1.638,4.409-2.268,5.417-2.771
	c1.008-0.504,6.425,0.378,8.819,0.63c2.394,0.252,1.26,2.016,2.142,2.142c0.882,0.126,1.764,0.504,3.149,1.764
	c1.386,1.26,2.897,0.882,3.905,0.882c1.008,0,1.008-1.134,2.394-1.764c1.386-0.63,3.905,0.882,4.661,1.638
	c0.756,0.756,0.756,1.763,1.638,2.771c0.882,1.008,8.944,11.464,9.7,12.724c0.756,1.26,1.008,1.26,2.015,1.512
	c1.008,0.252,0.252,1.386,0.378,2.772c0.126,1.386,5.417,5.417,6.551,6.929c1.134,1.511,0.378,1.008,1.26,2.016
	c0.882,1.008,1.512,0.377,2.267-0.757c0.756-1.134,0.882-0.126,1.386,0.127c0.504,0.252,0.756,1.511,1.89,2.394
	c1.134,0.882,0.882,0.126,0.882-1.008c0-1.134,0.882-1.008,1.512-2.772c0.63-1.764,2.267-1.763,3.149-2.394
	c0.882-0.631,1.512,0.378,3.276,1.386c1.764,1.008,4.535,0.756,5.795,0.756c1.26,0,3.653,0.63,4.409,1.386
	c0.756,0.756,1.638,1.008,2.268,0.504c0.63-0.504,1.638-0.252,2.52-0.252c0.882,0,1.133,0,2.268-1.008
	c1.134-1.008,1.512-0.126,3.276-0.252c1.764-0.126,4.409,0.377,5.921,0.377c1.512,0,2.394-0.882,3.401-1.007
	c1.008-0.126,3.276,0.503,4.535,0.63c1.26,0.127,1.133-1.386,1.638-2.646c0.504-1.26,0.756-1.134,1.638-1.386
	c0.881-0.252,2.898,0.378,3.401,0.378c0.504,0,4.032,0.126,5.921,0c1.89-0.126,2.142,0.756,3.149,1.89
	c1.008,1.134,2.016,0.756,2.016,0.756s1.26,1.134,1.008,1.764c-0.252,0.63-0.63,1.007-0.756,2.015
	c-0.126,1.008,0.882,2.142,1.764,3.275c0.882,1.133-1.008,1.89-2.519,3.402c-1.512,1.511-3.905,5.669-4.535,7.054
	c-0.63,1.386,0,3.779-0.378,6.677c-0.378,2.898-0.63,1.008-2.394,2.141c-1.764,1.133-3.401,2.142-3.653,3.024
	c-0.252,0.881-1.386,5.417-1.386,7.181s2.772,1.386,2.772,3.149c0,1.764-1.134,2.015-1.26,4.535
	c-0.126,2.52,0.378,5.796-0.882,7.937c-1.26,2.141-0.756,5.544-0.126,7.434c0.63,1.89,2.142,2.519,2.772,3.528
	c0.63,1.008-0.882,2.519-1.512,4.157c-0.63,1.638,1.386,2.645,2.646,3.779c1.26,1.134,3.527,3.527,3.653,4.408
	c0.126,0.882-1.512,0.63-2.015,1.134c-0.504,0.504,0.756,1.764,1.26,2.772c0.504,1.008,1.763,3.149,2.142,3.905
	c0.378,0.756,1.133,0.63,3.275,0.63c2.142,0,1.386,1.638,1.764,3.149c0.378,1.511,0.378,2.394,0.756,3.402
	c0.378,1.008,3.023,2.645,4.157,3.905c1.134,1.26-1.386,3.653-1.889,4.661c-0.504,1.007-6.677,5.796-8.063,6.551
	c-1.385,0.756-4.157,3.779-5.039,4.787c-0.882,1.008-4.283,3.149-5.165,3.401c-0.882,0.252-0.126,1.134,0.63,1.386
	c0.756,0.252,1.89-0.252,3.15-0.252c1.26,0,1.134-1.26,1.89-0.252c0.756,1.008,3.527,1.386,4.157,1.89
	c0.63,0.504,0.126,1.26,0.63,2.519c0.504,1.26,3.15,0.504,3.654,0.63c0.504,0.126,1.638,1.764,2.646,3.149
	c1.008,1.386,5.795,4.409,7.181,6.424c1.386,2.015-1.133,3.779-1.26,5.417c-0.126,1.638,2.268,3.402,2.772,4.157
	c0.504,0.756,0.504,1.638,0.756,3.779c0.252,2.141,1.008,2.015,1.763,3.023c0.756,1.008,0.63,2.645,1.638,4.662
	c1.008,2.016,2.142,4.66,2.268,6.549c0.126,1.89,0.378,3.653,0.63,5.669c0.252,2.015,0.756,1.26,1.386,2.394
	c0.63,1.134,0.252,1.26,0.504,3.401c0.252,2.141,0.252,1.512,2.645,2.268c2.394,0.756,7.055,5.796,12.346,9.952
	c5.291,4.157,5.165,3.149,5.165,3.149s2.898,0.504,3.653,0.756c0.756,0.252,2.015-0.504,2.898-1.386
	c0.882-0.882,2.141,0,3.024-0.503c0.882-0.503,0.756-0.378,1.385-1.89c0.63-1.512,3.653-2.897,6.299-4.409
	c2.645-1.512,6.803-0.63,8.441,1.134c1.638,1.764,1.134,2.772,0.63,4.283c-0.504,1.511-1.512,3.275-1.89,5.039
	c-0.377,1.764,2.268-0.126,3.149-0.504c0.881-0.378,0.881-1.385,1.008-3.149c0.127-1.764,1.511-2.394,2.141-3.653
	c0.63-1.26,2.268-0.503,3.653-0.63c1.386-0.127,1.386-0.503,1.638-1.007c0.253-0.504,0.377-3.149,0.377-4.032
	c0-0.882,1.386-1.89,2.016-2.141c0.63-0.252,2.645-0.378,3.905-0.757c1.26-0.378,0.881-0.881,1.26-1.763
	c0.378-0.881,1.134,0,2.394,0c1.26,0,0.756-0.882,1.638-2.268c0.882-1.386,2.393-0.63,2.771-0.126
	c0.378,0.504,1.386,1.26,3.528,0.63c2.142-0.63,1.89-2.142,2.898-3.276c1.008-1.134,2.645-2.645,3.275-3.653
	c0.63-1.008,3.023-1.762,4.157-2.14c1.134-0.378,1.007,0.63,1.007,0.63s1.134,1.89,1.638,1.512c0.504-0.378,4.158-2.645,4.409-3.149
	c0.252-0.504,2.268-1.638,2.645-2.646c0.377-1.008,0-4.535,0-6.676c0-2.141,0.127-2.772,0.882-3.528
	c0.756-0.756,4.409-2.394,5.417-2.394c1.008,0,4.031,0,5.165-0.126c1.134-0.126,4.283-2.898,5.291-4.032
	c1.008-1.134,5.795-0.377,5.795-0.377s1.134-2.142,1.26-3.023s-0.504-3.653-1.134-4.787c-0.63-1.134-7.307,0-8.944,0
	c-1.637,0-4.157-0.252-5.669-0.756c-1.511-0.503-2.016-0.882-4.032-1.26c-2.015-0.377-2.394-0.127-3.149-0.252
	c-0.756-0.126-0.126-2.141-0.252-3.905c-0.127-1.764,0.504-1.134,1.512-2.394c1.008-1.26,0.252-1.764,0.126-3.528
	c-0.126-1.764-3.024-5.542-4.032-6.928c-1.008-1.386-3.527-4.283-3.527-5.669c0-1.385,0.377-4.787,0-6.173
	c-0.377-1.386-0.378-2.772-0.127-5.291c0.252-2.519,0.882-1.89,0.882-3.275c0-1.386,0-1.386-0.504-2.268
	c-0.504-0.881-2.519-2.394-4.535-3.779c-2.015-1.386-4.536-1.764-6.047-2.898c-1.511-1.134-0.882-1.511-2.394-3.653
	c-1.511-2.142-1.638-0.504-2.52-2.268c-0.881-1.764-1.134-2.897-1.764-4.535c-0.63-1.638-2.142-1.008-3.149-3.149
	c-1.007-2.141,0.377-2.268,1.511-3.024c1.134-0.756,2.394,0.126,2.772,0.504c0.378,0.378,2.141,2.141,2.771,2.394
	c0.63,0.252,0.504,0.881,1.134,2.015c0.63,1.134,1.764,0.378,3.402,0.63c1.638,0.252,2.519-0.378,5.165-1.134
	c2.645-0.756,5.416,0.377,7.558,1.51c2.141,1.134,2.52,3.653,2.772,5.039c0.252,1.386,0.377,1.891,1.26,2.394
	c0.882,0.503,2.267-1.764,3.149-2.52c0.882-0.756,1.385,0,2.394,0c1.008,0,2.645,1.26,2.645,1.26s0.63-0.756,2.015-1.386
	c1.386-0.63,1.638-0.252,3.023-0.126c1.386,0.126,1.512,1.26,2.016,2.141c0.504,0.881,1.26,1.008,2.393,0.63
	c1.133-0.378,0.127-0.756,0.504-2.771c0.377-2.015,3.276-0.378,4.158-0.378s1.89,1.134,2.645,2.015
	c0.756,0.881,5.921,4.913,6.425,6.551c0.504,1.638,3.401,3.905,4.913,4.283c1.512,0.378,1.386,0.253,2.645-0.126
	c1.26-0.378,2.015-0.63,2.772-1.764c0.757-1.134,0.63-1.26,0.503-3.023c-0.127-1.764-1.637-3.149-2.393-4.787
	c-0.756-1.638,0.252-2.52,0.252-3.779c0-1.26,1.386-1.26,3.401-1.764c2.015-0.504,3.15,0.757,4.787,0.253
	c1.637-0.504,0.378-0.504,0.756-2.016c0.377-1.512,1.512-2.267,2.142-2.897c0.63-0.63,2.519-1.008,5.165,0.252
	c2.645,1.26,7.306,2.52,8.314,1.511c1.008-1.008,2.771-1.511,3.779-1.638c1.008-0.127,1.89,0.504,2.394,0.378
	c0.504-0.126,2.898-1.385,4.283-3.149s2.141,0.126,5.039,0.126c2.898,0,2.394,0,3.149-1.386c0.756-1.385,0.882-2.772,1.008-4.032
	c0.126-1.26,1.26-1.134,2.645-1.134c1.386,0,2.645,0,3.402-0.377s0.377-1.26,0.252-2.394c-0.126-1.134,1.386-1.008,2.015-1.512
	c0.63-0.504,1.008,0.504,3.149,0.757c2.141,0.252,5.04,0.503,5.417,0.377s1.26-1.386,1.386-3.275
	c0.126-1.89,1.386-1.764,2.016-2.772c0.63-1.008,6.803-4.157,8.692-5.795c1.89-1.638,1.511-2.898,1.134-3.528
	c-0.377-0.63-1.134-1.386-1.134-2.897c0-1.511-0.756-1.386-1.764-2.142c-1.008-0.756-1.386-0.881-1.89-2.394
	c-0.504-1.512-20.283-22.676-21.668-24.188c-1.386-1.511,0.126-2.016,1.386-2.898c1.26-0.881,1.764-1.134,2.015-1.89
	c0.252-0.756,1.26-0.882,2.394-2.142c1.134-1.26,3.024-1.007,3.402-1.26c0.378-0.252,0.756-1.764-0.252-3.149
	c-1.008-1.386-1.26-1.511-0.504-3.528c0.756-2.016-0.125-3.778-0.881-4.786c-0.756-1.008-0.631-1.386-0.504-2.016
	c0.127-0.63,0.377-1.638,0.126-2.519c-0.252-0.882-0.756-1.638-1.512-3.024c-0.757-1.386,0.504-1.26,0.504-2.016
	c0-0.756,1.26,0.126,1.638,0.63s1.26,0.63,2.268,0.63c1.008,0,1.301,0.378,1.301,0.63c0,0.252,2.73-0.252,3.109-0.504
	c0.378-0.252,0.252-1.386,0.377-2.394c0.126-1.008,2.268-0.126,3.276-0.252c1.008-0.126,2.015,0.63,2.519,0.756
	c0.504,0.126,1.764,0.882,2.519,0.504c0.756-0.378,1.511-1.26,1.764-1.89c0.252-0.63,3.149-0.378,3.653-0.504
	c0.504-0.126,1.386,0,1.764-0.756c0.378-0.756,0.377-1.008,2.394-2.142c2.016-1.134,1.511-0.756,2.267-1.638
	c0.756-0.882,0.504-0.756,1.764-1.89c1.26-1.133,1.134-0.756,1.386-1.512c0.252-0.756-1.007-0.882-2.015-1.638
	c-1.008-0.756-1.008-0.63-2.268-1.89c-1.26-1.26-1.511-0.504-3.149-0.378c-1.638,0.126-0.881,0.882-2.015,1.008
	c-1.134,0.126-1.512-0.504-3.024-1.638c-1.511-1.134-0.504-1.764,0.63-2.519c1.134-0.756,1.008-0.882,0.756-2.267
	c-0.252-1.386-2.267-2.142-4.031-3.402c-1.764-1.26-1.008-1.26-1.008-3.149c0-1.89,0.252-0.252,2.015-0.756
	c1.763-0.504,0.882-0.756,1.386-1.764c0.504-1.008,1.89-1.26,1.511-2.897c-0.378-1.638,0.504-2.267,1.26-3.4
	c0.756-1.133,1.764-0.126,2.646-0.126c0.882,0,3.779-0.504,3.779-0.504s0.756-0.756,1.764-1.26c1.008-0.504,1.007-1.764,1.763-2.394
	s2.646-2.142,3.528-2.772c0.881-0.63,2.519-0.252,3.024-0.252c0.504,0,0.881-1.638,0.63-2.646c-0.252-1.008,0.63-1.512,1.134-2.519
	c0.504-1.008,2.268-2.015,3.275-2.519c1.007-0.504,2.268-0.126,3.024-0.882C456.044,129.631,455.541,129.253,454.407,128.246z"/>
</svg>
